<svg xmlns="http://www.w3.org/2000/svg" width="1200" height="630" viewBox="0 0 1200 630" role="img" aria-label="Відкриття P2P-мерчанта">
  <defs>
    <linearGradient id="bg" x1="0" x2="1" y1="0" y2="1">
      <stop offset="0" stop-color="#06100d"/>
      <stop offset="0.55" stop-color="#091716"/>
      <stop offset="1" stop-color="#121716"/>
    </linearGradient>
    <linearGradient id="accent" x1="0" x2="1">
      <stop offset="0" stop-color="#51f0b4"/>
      <stop offset="0.55" stop-color="#48c7ff"/>
      <stop offset="1" stop-color="#d9ff75"/>
    </linearGradient>
  </defs>
  <rect width="1200" height="630" fill="url(#bg)"/>
  <path d="M0 90h1200M0 180h1200M0 270h1200M0 360h1200M0 450h1200M0 540h1200M120 0v630M240 0v630M360 0v630M480 0v630M600 0v630M720 0v630M840 0v630M960 0v630M1080 0v630" stroke="#ffffff" stroke-opacity=".06"/>
  <rect x="82" y="78" width="1036" height="474" rx="32" fill="#0b1513" stroke="#ffffff" stroke-opacity=".16"/>
  <rect x="132" y="128" width="116" height="38" rx="19" fill="#11231f" stroke="#51f0b4" stroke-opacity=".5"/>
  <text x="190" y="153" text-anchor="middle" fill="#d9ff75" font-family="Arial, sans-serif" font-size="18" font-weight="700">P2P Merchant</text>
  <text x="132" y="244" fill="#f2fff9" font-family="Arial, sans-serif" font-size="66" font-weight="800">Відкриття P2P-мерчанта</text>
  <text x="132" y="310" fill="#b9cbc3" font-family="Arial, sans-serif" font-size="30">Супровід Bybit, OKX, WEEX та MEXC</text>
  <rect x="132" y="378" width="202" height="56" rx="16" fill="url(#accent)"/>
  <text x="233" y="414" text-anchor="middle" fill="#04100c" font-family="Arial, sans-serif" font-size="20" font-weight="800">Залишити заявку</text>
  <rect x="728" y="156" width="304" height="294" rx="24" fill="#07100e" stroke="#ffffff" stroke-opacity=".18"/>
  <path d="M770 216h220M770 286h220M770 356h220" stroke="#ffffff" stroke-opacity=".12"/>
  <circle cx="796" cy="216" r="12" fill="#51f0b4"/>
  <circle cx="796" cy="286" r="12" fill="#48c7ff"/>
  <circle cx="796" cy="356" r="12" fill="#d9ff75"/>
  <text x="830" y="224" fill="#f2fff9" font-family="Arial, sans-serif" font-size="24" font-weight="700">Профіль</text>
  <text x="830" y="294" fill="#f2fff9" font-family="Arial, sans-serif" font-size="24" font-weight="700">Документи</text>
  <text x="830" y="364" fill="#f2fff9" font-family="Arial, sans-serif" font-size="24" font-weight="700">Супровід</text>
</svg>
